<?xml version="1.0" standalone="no"?><!DOCTYPE svg PUBLIC "-//W3C//DTD SVG 1.1//EN" "http://www.w3.org/Graphics/SVG/1.1/DTD/svg11.dtd"><svg t="1691914384450" class="icon" viewBox="0 0 1024 1024" version="1.1" xmlns="http://www.w3.org/2000/svg" p-id="5835" xmlns:xlink="http://www.w3.org/1999/xlink" width="200" height="200"><path d="M584 726.8h15.2v91.5H584z" fill="#C5E5FF" p-id="5836"></path><path d="M743.3 833.5H440c-0.4 0-0.8-0.3-0.8-0.8V819c0-0.4 0.4-0.8 0.8-0.8h303.3c0.4 0 0.8 0.3 0.8 0.8v13.7c-0.1 0.5-0.4 0.8-0.8 0.8zM904.1 307.4h-625c-16.8 0-30.5 13.7-30.5 30.5v358.4c0 16.8 13.7 30.5 30.5 30.5h625c16.8 0 30.5-13.7 30.5-30.5V337.9c0-16.8-13.7-30.5-30.5-30.5z m-38.1 366h-61c-4.2 0-7.6-3.4-7.6-7.6 0-4.2 3.4-7.6 7.6-7.6h61c4.2 0 7.6 3.4 7.6 7.6s-3.4 7.6-7.6 7.6z" fill="#C5E5FF" p-id="5837"></path><path d="M911.3 726.3H112.7c-26.8 0-48.7-21.8-48.7-48.7V219.7c0-26.9 21.9-48.7 48.7-48.7h609.7c5.4 0 9.7 4.4 9.7 9.7s-4.4 9.7-9.7 9.7H112.7c-16.1 0-29.2 13.1-29.2 29.2v457.9c0 16.1 13.1 29.2 29.2 29.2h798.6c16.1 0 29.2-13.1 29.2-29.2V219.7c0-16.1-13.1-29.2-29.2-29.2h-68.8c-5.4 0-9.7-4.4-9.7-9.7s4.4-9.7 9.7-9.7h68.8c26.8 0 48.7 21.9 48.7 48.7v457.9c0 26.8-21.8 48.6-48.7 48.6z" fill="#3B94FF" p-id="5838"></path><path d="M502.3 716.6h19.5v116.9h-19.5zM705.8 853H318.2c-0.5 0-1-0.5-1-1v-17.5c0-0.5 0.5-1 1-1h387.6c0.5 0 1 0.5 1 1V852c0 0.5-0.5 1-1 1zM871.3 648.4H776c-0.5 0-1-0.5-1-1v-17.5c0-0.5 0.5-1 1-1h95.4c0.5 0 1 0.5 1 1v17.5c-0.1 0.6-0.5 1-1.1 1z" fill="#3B94FF" p-id="5839"></path></svg>