<?xml version="1.0" standalone="no"?><!DOCTYPE svg PUBLIC "-//W3C//DTD SVG 1.1//EN" "http://www.w3.org/Graphics/SVG/1.1/DTD/svg11.dtd"><svg t="1691913698401" class="icon" viewBox="0 0 1024 1024" version="1.1" xmlns="http://www.w3.org/2000/svg" p-id="4169" xmlns:xlink="http://www.w3.org/1999/xlink" width="200" height="200"><path d="M593.599746 1024c-236.799649 0-430.400254-193.600605-430.400254-430.400254S356.800097 163.199492 593.599746 163.199492s430.400254 192.000106 430.400254 430.400254-193.600605 430.400254-430.400254 430.400254z" fill="#FDBF5E" p-id="4170"></path><path d="M593.599746 593.599746m-356.799973 0a356.799973 356.799973 0 1 0 713.599946 0 356.799973 356.799973 0 1 0-713.599946 0Z" fill="#4FBF9F" p-id="4171"></path><path d="M593.599746 964.800088c-204.799975 0-371.200342-166.400367-371.200342-371.200342S388.799771 222.399404 593.599746 222.399404s371.200342 166.400367 371.200342 371.200342-166.400367 371.200342-371.200342 371.200342z m0-711.999447c-188.799107 0-340.799105 153.600497-340.799105 340.799105 0 188.799107 153.600497 340.799105 340.799105 340.799105 188.799107 0 340.799105-153.600497 340.799105-340.799105 0-188.799107-153.598435-340.799105-340.799105-340.799105z" fill="#193651" p-id="4172"></path><path d="M593.599746 883.199372c-160.000432 0-291.200126-129.599195-291.200126-291.200125s129.599195-291.200126 291.200126-291.200126 291.200126 129.599195 291.200126 291.200126-131.199694 291.200126-291.200126 291.200125z" fill="#FFFFFF" p-id="4173"></path><path d="M636.800852 628.800418l-43.201106 36.79911-43.199044-35.200673v-23.99924l86.40015-1.600499z" fill="#E1E6E9" p-id="4174"></path><path d="M593.599746 500.79966m-107.200454 0a107.200454 107.200454 0 1 0 214.400908 0 107.200454 107.200454 0 1 0-214.400908 0Z" fill="#F16051" p-id="4175"></path><path d="M508.800094 566.399507v-48.000542s83.199152 27.200238 123.199261-46.400042c0 0 9.600933 35.200673 46.400042 40.000108v56.000976s-17.599305 68.800846-84.799651 67.200346c0-1.600499-67.200346 1.600499-84.799652-68.800846z" fill="#FDBF5E" p-id="4176"></path><path d="M724.79944 673.599962c-31.999674-14.400369-68.800846-20.800304-68.800846-20.800304l-62.400911 14.400369-60.800411-14.400369s-36.799109 4.799435-70.399283 20.800304c-30.399175 14.400369-51.199478 44.799543-51.199478 78.399716v68.800846c49.598979 40.000108 113.600389 63.999348 182.399172 63.999348s131.199694-23.99924 182.399173-63.999348v-68.800846c-1.596374-33.600173-20.796179-65.599847-51.197416-78.399716z" fill="#E1E6E9" p-id="4177"></path><path d="M550.400702 630.398855l-17.601368 22.400803 28.800738 62.400911 31.999674-49.601041zM636.800852 628.800418l19.199805 23.99924-30.401237 62.400911-31.999674-49.601041z" fill="#CFD0D1" p-id="4178"></path><path d="M601.60018 713.60007l12.799869-16.000868-20.800303-31.999674-20.800304 31.999674 11.201433 16.000868-20.800304 95.999021 31.999674 31.999674 31.999674-31.999674zM481.599856 14.400493H14.400493v377.600276h153.600497l241.599084 123.19926-35.200672-123.19926h107.200454z" fill="#2EA2DB" p-id="4179"></path><path d="M409.600074 531.200897c-1.600499 0-4.799435 0-6.399935-1.600499L164.799991 407.999575H14.400493c-8.000434 0-14.400369-8.000434-14.400369-16.000868V14.400493A14.340556 14.340556 0 0 1 14.400493 0.000124h465.598864c9.600933 0 16.000868 6.399935 16.000868 14.400369v377.600276a14.340556 14.340556 0 0 1-14.400369 14.400369h-86.400151l28.800738 100.80052c1.600499 1.600499 1.600499 4.799435 1.600499 6.399934 0 9.598871-6.401997 17.599305-16.000868 17.599305 1.600499 0 1.600499 0 0 0zM30.399298 377.6004h137.599629c1.600499 0 4.799435 0 6.399935 1.6005l211.19991 107.200454-25.599739-89.599087c-1.600499-4.799435 0-9.600933 3.200999-12.799869 3.200999-3.200999 8.000434-6.399935 12.799869-6.399935h91.199586V30.399298H30.399298v347.201102z" fill="#193651" p-id="4180"></path><path d="M182.399296 332.800857H75.200904V75.200904h345.59854v257.599953h-126.400258l19.199804 65.599847z" fill="#FFFFFF" p-id="4181"></path><path d="M152.000121 188.799231h30.399175v30.399174H152.000121zM233.600837 188.799231H264.000011v30.399174h-30.399174zM315.199489 188.799231h30.399175v30.399174h-30.399175z" fill="#193651" p-id="4182"></path><path d="M73.099218 760.701362L51.603852 782.196728l-21.495366-21.495366 21.495366-21.495366zM149.219873 837.640829L127.724507 859.134133l-21.495366-21.495366 21.495366-21.495366zM225.179653 912.334235l-21.495366 21.495366-21.495366-21.495366 21.495366-21.495366zM777.005418 56.7106l-21.497429 21.495365-21.495365-21.495365 21.495365-21.495366zM853.05801 133.602629l-21.495366 21.495366-21.495365-21.495366 21.495365-21.495366zM929.147728 208.310473l-21.495366 21.495365-21.495366-21.495365 21.495366-21.495366z" fill="#193651" p-id="4183"></path></svg>